<svg version="1.1" id="Layer_1" xmlns="http://www.w3.org/2000/svg" xmlns:xlink="http://www.w3.org/1999/xlink" x="0px" y="0px"
	 width="100%" viewBox="0 0 1000 1125" enable-background="new 0 0 1000 1125" xml:space="preserve">
<path fill="#000000" opacity="1.000000" stroke="none" 
	d="
M1001.000000,468.000000 
	C1001.000000,687.292908 1001.000000,906.585876 1001.000000,1125.939453 
	C667.768555,1125.939453 334.537048,1125.939453 1.000000,1125.939453 
	C1.000000,926.305420 1.000000,726.610657 1.369358,526.469421 
	C2.032737,526.126343 2.504355,526.147644 2.595547,526.344849 
	C11.760272,546.165405 22.048655,565.568420 29.673456,585.966980 
	C35.900181,602.625244 38.979862,620.464172 43.385437,637.797241 
	C45.961853,647.933777 42.892551,651.462952 32.986279,649.943237 
	C32.398758,649.853149 31.826555,649.663269 30.517736,649.339111 
	C31.021542,660.184937 31.449202,670.603516 32.005707,681.015198 
	C32.515213,690.547607 36.874004,698.826965 40.655804,707.320068 
	C50.468803,729.358154 60.208385,751.429810 69.819176,773.556702 
	C75.397705,786.400146 80.950264,799.267822 86.013474,812.318970 
	C92.837601,829.908997 99.153252,847.695862 105.779449,865.363708 
	C106.282867,866.705994 107.362656,868.639099 108.440208,868.834778 
	C119.921326,870.919983 124.106125,879.261780 125.938812,889.288513 
	C129.804626,910.438293 136.281601,930.359558 150.519302,947.112793 
	C162.464035,961.167847 177.128342,969.584412 195.866669,969.978271 
	C202.363358,970.114807 208.954773,969.326660 215.341583,970.175293 
	C222.849808,971.172852 230.578308,972.565552 237.473343,975.513062 
	C243.632141,978.145874 248.650406,983.340515 254.411057,987.031555 
	C269.187469,996.499023 285.447266,1000.634583 302.972900,1000.057739 
	C305.033844,999.989929 307.366119,1000.235779 309.156372,1001.150696 
	C321.382721,1007.399353 333.597290,1013.685181 345.622101,1020.310242 
	C359.058075,1027.712769 372.450439,1035.223389 385.532990,1043.224609 
	C391.031281,1046.587158 395.829803,1049.169678 402.234955,1042.669067 
	C402.234955,1048.642944 402.234955,1053.151611 402.234955,1057.877197 
	C411.994598,1056.874634 421.410034,1055.785034 430.848938,1054.964844 
	C447.077026,1053.554688 463.301605,1051.945801 479.563354,1051.142700 
	C488.792023,1050.686768 498.133240,1051.230347 507.348785,1052.109619 
	C519.062317,1053.227295 530.695679,1055.173340 542.371643,1056.700317 
	C550.037170,1057.702759 557.255127,1062.900513 565.472107,1059.043823 
	C567.037231,1058.309082 568.943787,1058.160400 570.714294,1058.027588 
	C582.676453,1057.130615 593.602417,1060.336304 604.350342,1065.519409 
	C611.709839,1069.068604 618.014709,1074.684082 626.848206,1075.649658 
	C634.715881,1076.509766 637.953735,1074.106201 635.863342,1066.637939 
	C635.709290,1066.087280 635.551086,1065.537842 635.358093,1064.858521 
	C645.658142,1059.290771 656.739990,1057.482910 667.617554,1054.689331 
	C675.644287,1052.627686 681.691223,1053.084961 686.554871,1060.052734 
	C687.207520,1060.987671 687.725830,1062.031006 688.462585,1062.890137 
	C692.233276,1067.286865 695.480774,1072.558105 703.000793,1071.863037 
	C703.000793,1067.251587 702.778198,1062.766724 703.053528,1058.312744 
	C703.455566,1051.810547 706.048828,1045.630005 715.665100,1045.961914 
	C721.623291,1046.167603 727.594482,1046.000000 733.943909,1046.000000 
	C733.943909,1044.433472 734.195496,1043.245605 733.904724,1042.209839 
	C731.173157,1032.478394 733.802490,1024.864136 741.359802,1017.895386 
	C753.161377,1007.012756 763.913208,994.994934 775.659424,984.047852 
	C783.165344,977.052734 785.597839,977.924316 791.868286,986.445374 
	C794.213745,989.632568 797.111877,992.412964 800.281311,995.965393 
	C801.680542,987.145996 798.642822,977.348267 793.642029,972.099365 
	C791.030029,969.357910 788.589905,966.451111 786.106140,963.589478 
	C784.076050,961.250488 784.750977,959.865112 787.611694,958.961426 
	C792.265747,957.491394 796.831726,955.743164 801.482788,954.263184 
	C808.071167,952.166809 814.367432,952.363464 820.024597,956.977051 
	C820.887695,957.680969 822.008484,958.069153 823.817993,959.034241 
	C823.323608,957.208862 823.258606,956.250122 822.830139,955.498596 
	C818.798096,948.427307 818.812256,946.837891 826.134827,944.208984 
	C831.205872,942.388367 837.014893,942.285095 842.518799,942.083130 
	C852.179504,941.728577 858.213928,937.589050 859.918518,928.133057 
	C861.399231,919.919067 864.177917,912.778992 869.897278,906.473877 
	C884.880005,889.956726 898.627136,872.421448 910.121948,853.273682 
	C918.685974,839.007996 927.162292,824.651306 934.811035,809.886292 
	C941.403625,797.160095 946.928650,783.867615 952.623840,770.695007 
	C956.053284,762.762939 958.905457,754.581299 962.017029,746.511780 
	C961.552124,746.208313 961.087219,745.904846 960.622253,745.601379 
	C955.119568,750.195923 948.968628,754.214661 944.260315,759.514893 
	C936.445190,768.312622 929.462830,777.861816 922.306702,787.229736 
	C915.799988,795.747437 913.454651,795.323181 906.122742,790.766357 
	C904.746765,794.601013 903.412903,798.318542 902.078979,802.036011 
	C901.807434,801.953491 901.535828,801.870972 901.264221,801.788452 
	C901.080261,799.578247 900.896240,797.368103 900.650391,794.414307 
	C893.950134,799.820984 887.984924,804.886963 881.759888,809.610535 
	C863.137512,823.741211 844.359680,837.667114 825.740234,851.801697 
	C788.262451,880.252014 749.617249,907.039917 709.917664,932.262878 
	C701.589905,937.553955 696.024597,938.931274 688.733337,928.227234 
	C687.948059,927.074341 687.097961,925.965576 686.165161,924.680969 
	C683.053894,927.305237 680.467529,929.880371 677.494629,931.881226 
	C674.651306,933.794739 670.765503,937.040466 668.473450,936.279663 
	C663.998047,934.794189 665.415771,929.950256 666.324036,926.128418 
	C666.386963,925.863403 666.437622,925.595581 666.538452,925.119080 
	C664.077026,925.322937 661.589294,926.074951 659.346252,925.620056 
	C649.765564,923.676941 647.776001,924.434631 643.535950,932.998535 
	C642.248718,935.598511 640.900391,935.694641 639.206360,933.513672 
	C638.813904,933.008423 638.762695,932.190430 638.312012,931.787598 
	C637.213257,930.805603 635.972351,929.982666 634.788574,929.095703 
	C634.192810,930.325745 633.375488,931.500244 633.049988,932.798157 
	C632.466980,935.122437 632.180054,937.520996 631.706482,940.250977 
	C623.844238,935.794189 622.812317,944.504517 619.070496,946.543335 
	C613.654480,939.891174 608.567688,933.643494 603.480957,927.395813 
	C603.033569,927.678955 602.586121,927.962036 602.138733,928.245178 
	C603.243103,933.616760 608.365540,938.539673 604.759644,944.948120 
	C603.212341,943.289124 602.094666,942.090698 600.283813,940.149170 
	C600.148193,942.706299 600.244690,944.170410 599.962524,945.557495 
	C599.261780,949.001831 599.347778,953.176514 597.365967,955.660339 
	C594.155945,959.683655 589.667236,962.753418 585.472900,965.898193 
	C583.187500,967.611816 580.528320,969.269226 577.802795,969.850403 
	C573.653564,970.735046 569.271240,970.452881 565.039734,971.039673 
	C554.523376,972.498169 544.014099,974.035217 533.544006,975.791260 
	C523.940247,977.401917 514.524597,981.406433 504.612518,977.054016 
	C502.116577,975.957947 499.293335,975.530823 496.578094,975.023010 
	C479.906464,971.905334 463.261475,968.617432 446.529877,965.857239 
	C434.425476,963.860413 422.215729,962.464600 410.025055,961.040100 
	C399.916199,959.858765 389.747803,959.187073 379.638855,958.006592 
	C358.902679,955.584961 339.841949,948.111511 321.642975,938.216797 
	C316.742188,935.552246 311.985352,932.622925 306.880280,929.650879 
	C317.078644,924.298950 318.758575,920.954529 316.332520,911.207397 
	C310.571381,919.302490 301.451141,919.125305 293.188599,920.880981 
	C291.904541,921.153809 289.954437,920.241699 288.884399,919.256287 
	C281.810486,912.741699 274.923157,906.025146 267.917175,899.435913 
	C257.664825,889.793396 247.342911,880.224854 237.088531,870.584473 
	C219.826080,854.355530 202.250610,838.440186 185.439896,821.755188 
	C166.822678,803.277283 148.634369,784.343201 130.850662,765.062317 
	C124.494865,758.171387 118.757950,750.223633 114.688499,741.814636 
	C107.036224,726.002258 100.849503,709.483398 93.952911,693.301147 
	C91.430214,687.381775 88.621857,681.584167 85.763680,675.337402 
	C78.246841,684.504578 75.083740,680.673157 71.393341,673.802795 
	C70.552902,672.238037 69.312500,670.399414 69.523315,668.860352 
	C69.965233,665.634155 70.543602,661.918030 72.501762,659.634033 
	C73.408569,658.576355 77.688110,660.355896 80.416405,660.950867 
	C81.134552,661.107483 81.770096,661.642822 82.728729,662.157349 
	C82.833672,660.934998 83.060738,660.101501 82.948875,659.316223 
	C81.659454,650.264099 80.363968,641.212280 78.979561,632.174316 
	C77.396889,621.841980 75.520042,611.550415 74.146523,601.191345 
	C72.805992,591.081177 71.138123,580.954041 76.304108,571.145020 
	C80.920090,562.380432 85.956047,553.829773 86.486076,543.335022 
	C87.014030,532.881409 88.865234,522.499512 89.975365,512.069092 
	C91.105652,501.449097 91.901428,490.792755 93.094803,480.180573 
	C94.595810,466.832581 96.283821,453.504364 98.020233,440.184448 
	C99.309662,430.293365 100.152481,420.282349 102.335297,410.581512 
	C107.974159,385.521393 116.634880,361.580261 129.313797,339.056824 
	C141.032440,318.239258 155.214462,299.292145 171.087555,281.620728 
	C180.696411,270.923248 191.213364,261.024292 201.553864,251.005569 
	C214.053879,238.894531 226.656693,226.880966 239.496246,215.132568 
	C246.139267,209.054092 252.913559,202.891220 260.466980,198.083786 
	C275.456604,188.543503 290.932495,179.749741 306.381012,170.952225 
	C326.927063,159.251770 347.207458,146.959091 368.421143,136.598099 
	C384.283020,128.850998 401.185333,122.921074 418.104675,117.754997 
	C430.812256,113.874908 444.239594,112.224846 457.430389,110.103447 
	C465.041107,108.879456 472.808533,108.499893 480.524078,108.102219 
	C485.825836,107.828949 491.215210,107.716270 496.466766,108.349815 
	C505.724152,109.466614 514.864380,109.651566 523.837891,106.920128 
	C529.762878,105.116615 534.073303,101.099487 534.817810,94.897339 
	C535.834961,86.424065 535.933594,77.840515 536.429932,69.236450 
	C534.837219,69.123238 534.113708,68.866737 533.547119,69.063171 
	C527.695923,71.091728 522.833069,69.594391 518.076721,65.741081 
	C512.768494,61.440636 507.149353,57.443581 501.291565,53.939739 
	C498.800934,52.449955 494.976440,51.331158 492.416626,52.136593 
	C481.096802,55.698341 469.955475,59.861652 458.862885,64.103645 
	C439.496033,71.509857 420.311798,79.341301 402.987366,91.006981 
	C400.504730,92.678696 398.055450,94.399910 394.681946,96.724411 
	C395.199066,91.470772 396.004822,87.387680 395.858337,83.339043 
	C395.759644,80.611893 394.315918,77.933411 393.473907,75.233170 
	C390.460083,76.183662 386.838043,76.382027 384.551025,78.231354 
	C378.642059,83.009369 373.398407,88.600601 367.739716,93.701324 
	C364.209839,96.883110 360.434113,99.795647 356.722626,102.771469 
	C352.414215,106.225868 347.646729,106.651703 342.156799,106.151344 
	C335.959900,105.586555 329.305450,105.456467 323.399658,107.105698 
	C301.901031,113.109344 288.424164,127.741707 281.390350,148.952209 
	C276.914062,149.290909 272.313446,150.070801 267.750458,149.891754 
	C259.037354,149.549850 250.323563,147.985245 241.653915,148.268814 
	C236.905853,148.424103 231.282639,150.173401 227.718033,153.178024 
	C213.460159,165.196045 199.568039,177.688004 186.083084,190.572388 
	C170.904556,205.074905 156.439194,220.321274 141.395569,234.968796 
	C135.790237,240.426514 132.228546,246.691589 129.821442,254.051514 
	C127.609230,260.815521 125.636887,268.199585 121.415894,273.651276 
	C112.848892,284.716095 103.149727,294.968933 93.339073,304.990479 
	C80.038284,318.577148 65.682297,331.153778 52.713631,345.036774 
	C36.416527,362.482880 27.096901,384.054565 21.217978,406.829895 
	C16.786186,423.998871 14.101409,441.633209 10.977377,459.120880 
	C8.393069,473.587311 6.389960,488.156860 3.921430,502.645294 
	C3.432851,505.512878 1.998309,508.219269 1.000004,511.000000 
	C1.000000,341.035889 1.000000,171.071777 1.000000,1.053836 
	C334.227051,1.053836 667.454163,1.053836 1001.000000,1.053836 
	C1001.000000,154.361221 1001.000000,307.722656 1000.623169,461.543152 
	C994.364014,462.836670 992.202637,467.677216 989.531799,471.963715 
	C987.561768,475.125488 985.584900,478.268646 981.000000,479.235260 
	C981.000000,477.016998 981.033142,475.371796 980.994812,473.728241 
	C980.669861,459.793060 980.848328,445.821167 979.852661,431.933624 
	C978.857544,418.053345 976.660950,404.260223 975.033691,390.423889 
	C973.654785,378.699493 972.393188,366.961090 970.962097,355.243225 
	C970.449768,351.048676 970.633728,346.318390 968.698303,342.832977 
	C962.925476,332.436676 956.261902,322.534851 949.941956,312.442535 
	C938.949524,294.888672 927.943909,277.343048 916.962158,259.782501 
	C901.221741,234.612549 885.729065,209.283539 869.672546,184.317017 
	C861.221619,171.176529 849.689209,160.680130 837.985596,150.400223 
	C822.411926,136.720856 805.501343,125.002121 787.050964,115.682930 
	C774.691040,109.440025 762.034485,103.627808 749.091858,98.729416 
	C725.906555,89.954483 702.171509,83.194092 676.958984,83.991501 
	C664.858765,84.374191 652.753357,84.975098 640.655029,84.879784 
	C633.825195,84.825981 628.740845,87.028481 625.598694,93.015129 
	C624.043091,95.979042 622.755249,96.932716 619.253662,95.328957 
	C616.421570,94.031853 612.832764,94.051109 609.584351,94.076958 
	C604.647583,94.116219 599.711731,94.979034 594.781006,94.930885 
	C586.184143,94.846947 579.828064,98.585106 575.728333,105.838303 
	C571.396362,113.502220 572.189392,121.213684 577.018494,128.486786 
	C583.510315,138.264084 592.945740,144.712784 603.243652,149.455093 
	C615.577271,155.134827 628.703247,158.281372 642.444153,159.251236 
	C648.081726,159.649155 654.058777,159.220764 659.551453,162.732117 
	C674.384949,172.214767 689.954224,180.566193 704.613159,190.297867 
	C728.543823,206.184784 752.058167,222.704422 775.604736,239.162308 
	C791.132385,250.015366 806.386658,261.258942 821.809692,272.262604 
	C826.989624,275.958221 832.224060,279.592468 837.592834,283.004242 
	C844.192627,287.198334 850.535034,284.197723 856.677551,281.630615 
	C861.385315,279.663147 865.864502,277.148804 870.783813,274.709869 
	C870.895203,276.170471 870.980591,276.827545 870.990051,277.485718 
	C871.085693,284.165375 870.146851,291.059784 871.493286,297.475189 
	C873.553833,307.292847 877.033142,316.831329 880.189575,326.396088 
	C885.097595,341.268280 893.603333,352.893158 907.376282,361.521423 
	C920.156616,369.527954 924.319031,383.389771 923.799011,398.054474 
	C923.571838,404.462006 921.210144,410.782349 919.982666,417.173950 
	C919.674377,418.779053 919.441772,420.793671 920.127625,422.131287 
	C924.958435,431.551819 929.530151,441.165436 935.167725,450.096802 
	C942.178223,461.203217 950.732239,471.121429 961.406738,479.095490 
	C963.505249,480.663055 964.863647,483.572327 965.864746,486.135651 
	C966.542786,487.871826 965.473633,490.276794 966.117737,492.042816 
	C967.235168,495.106110 968.401550,498.822357 970.788269,500.574982 
	C973.514893,502.577148 976.695618,500.403656 978.864014,497.738708 
	C979.192810,497.334534 979.957642,497.285156 981.072754,496.862518 
	C978.969299,521.046204 973.510193,544.755798 980.523438,568.475220 
	C981.524109,563.748657 981.522461,558.973999 982.106262,554.272034 
	C983.597961,542.258301 984.830627,530.176208 987.128906,518.307800 
	C990.066589,503.137878 993.868530,488.131378 997.523132,473.109314 
	C997.979065,471.235168 999.807556,469.694946 1001.000000,468.000000 
M555.973938,284.475311 
	C547.640747,283.650269 539.313660,282.218872 530.972961,282.134247 
	C516.376892,281.986206 501.758057,282.376099 487.176331,283.097656 
	C477.188477,283.591919 467.135101,284.404114 457.306580,286.165527 
	C429.224701,291.198242 402.425598,300.043335 377.432251,314.134430 
	C348.852356,330.247620 324.421112,351.244904 304.573120,377.187866 
	C283.231445,405.083160 268.698792,436.568054 259.301849,470.390778 
	C252.972931,493.170746 249.393967,516.497620 248.239105,540.018188 
	C247.369614,557.726990 248.119125,575.573914 249.161285,593.299744 
	C250.015991,607.837158 251.528702,622.445251 254.241379,636.738953 
	C258.528381,659.328125 265.615479,681.181458 275.044800,702.216492 
	C287.080750,729.066345 303.997223,752.741699 323.528564,774.463623 
	C331.045044,782.823303 340.270538,789.804260 349.346710,796.568909 
	C365.735046,808.783386 383.307800,819.041077 402.334137,826.796631 
	C429.104584,837.708984 457.052155,843.431641 485.722931,844.790039 
	C508.816650,845.884216 531.967163,845.324951 554.921936,841.123840 
	C572.661377,837.877136 590.123718,833.689941 606.026611,825.216003 
	C617.202637,819.260803 627.675720,811.848755 637.964783,804.399597 
	C652.496765,793.878540 664.546631,780.747009 675.247681,766.379028 
	C679.099915,761.206726 682.939514,756.024963 687.583435,749.772278 
	C688.262024,752.412659 688.862671,753.831055 688.962219,755.283875 
	C689.695374,765.982300 690.415527,776.682983 690.971558,787.391724 
	C691.726257,801.923584 692.499512,816.458679 692.891052,831.002441 
	C692.999451,835.030029 694.255249,836.113831 698.132385,836.075073 
	C715.463501,835.901794 732.797302,836.007629 750.130127,835.982605 
	C751.383484,835.980774 752.636536,835.738770 753.704529,835.627686 
	C753.704529,738.246399 753.704529,641.315002 753.704529,544.357849 
	C679.025208,544.357849 604.641968,544.357849 530.245178,544.357849 
	C530.245178,561.983521 530.245178,579.250244 530.245178,597.061768 
	C582.209473,597.061768 633.931946,597.061768 685.834351,597.061768 
	C685.906189,598.570984 686.110901,599.566956 685.975037,600.513977 
	C684.025391,614.101624 682.452332,627.760864 679.955322,641.248657 
	C675.072510,667.624573 665.567749,692.234497 651.080933,714.958374 
	C637.564819,736.159790 620.322205,753.250488 598.225525,765.333374 
	C572.679749,779.302246 544.835754,784.569702 516.207275,785.796936 
	C503.558655,786.339111 490.792999,784.957397 478.120270,783.948669 
	C457.875854,782.337463 438.828156,776.187073 420.718536,767.235229 
	C398.888000,756.444092 380.516266,741.249634 364.967102,722.522583 
	C349.876495,704.347961 338.944183,683.953125 330.851044,661.809082 
	C318.908173,629.131592 315.881836,595.141602 315.062012,560.783569 
	C314.948517,556.026062 315.604431,551.243347 316.012360,546.481567 
	C316.994781,535.013489 316.928772,523.312683 319.320557,512.141418 
	C322.989380,495.005310 327.343903,477.867493 333.260895,461.396240 
	C342.031616,436.981201 355.611969,414.985229 374.146057,396.738556 
	C384.003998,387.033478 395.313202,378.573944 406.821686,370.820251 
	C433.083313,353.126801 462.953247,345.315063 494.073334,343.275604 
	C515.284546,341.885498 536.637024,342.434967 557.754272,346.865845 
	C583.329285,352.231964 606.647522,362.144073 626.534729,379.169647 
	C646.921204,396.622620 660.603943,418.495178 666.875122,444.705780 
	C667.724426,448.255341 669.165161,449.075378 672.478027,449.058807 
	C694.976807,448.946075 717.476440,449.004456 739.975769,448.987366 
	C741.259583,448.986389 742.543335,448.807739 743.859314,448.709351 
	C743.901672,447.753876 744.086243,447.054535 743.937927,446.434814 
	C738.359314,423.116943 729.683044,401.056061 716.921326,380.700867 
	C704.973572,361.644012 689.876160,345.260132 672.405457,331.293701 
	C654.996338,317.376404 635.637268,306.601654 614.610535,298.859589 
	C595.847595,291.951050 576.669922,287.001251 555.973938,284.475311 
z"/>
<path fill="#FF0000" opacity="1.000000" stroke="none" 
	d="
M1.000004,511.466125 
	C1.998309,508.219269 3.432851,505.512878 3.921430,502.645294 
	C6.389960,488.156860 8.393069,473.587311 10.977377,459.120880 
	C14.101409,441.633209 16.786186,423.998871 21.217978,406.829895 
	C27.096901,384.054565 36.416527,362.482880 52.713631,345.036774 
	C65.682297,331.153778 80.038284,318.577148 93.339073,304.990479 
	C103.149727,294.968933 112.848892,284.716095 121.415894,273.651276 
	C125.636887,268.199585 127.609230,260.815521 129.821442,254.051514 
	C132.228546,246.691589 135.790237,240.426514 141.395569,234.968796 
	C156.439194,220.321274 170.904556,205.074905 186.083084,190.572388 
	C199.568039,177.688004 213.460159,165.196045 227.718033,153.178024 
	C231.282639,150.173401 236.905853,148.424103 241.653915,148.268814 
	C250.323563,147.985245 259.037354,149.549850 267.750458,149.891754 
	C272.313446,150.070801 276.914062,149.290909 281.390350,148.952209 
	C288.424164,127.741707 301.901031,113.109344 323.399658,107.105698 
	C329.305450,105.456467 335.959900,105.586555 342.156799,106.151344 
	C347.646729,106.651703 352.414215,106.225868 356.722626,102.771469 
	C360.434113,99.795647 364.209839,96.883110 367.739716,93.701324 
	C373.398407,88.600601 378.642059,83.009369 384.551025,78.231354 
	C386.838043,76.382027 390.460083,76.183662 393.473907,75.233170 
	C394.315918,77.933411 395.759644,80.611893 395.858337,83.339043 
	C396.004822,87.387680 395.199066,91.470772 394.681946,96.724411 
	C398.055450,94.399910 400.504730,92.678696 402.987366,91.006981 
	C420.311798,79.341301 439.496033,71.509857 458.862885,64.103645 
	C469.955475,59.861652 481.096802,55.698341 492.416626,52.136593 
	C494.976440,51.331158 498.800934,52.449955 501.291565,53.939739 
	C507.149353,57.443581 512.768494,61.440636 518.076721,65.741081 
	C522.833069,69.594391 527.695923,71.091728 533.547119,69.063171 
	C534.113708,68.866737 534.837219,69.123238 536.429932,69.236450 
	C535.933594,77.840515 535.834961,86.424065 534.817810,94.897339 
	C534.073303,101.099487 529.762878,105.116615 523.837891,106.920128 
	C514.864380,109.651566 505.724152,109.466614 496.466766,108.349815 
	C491.215210,107.716270 485.825836,107.828949 480.524078,108.102219 
	C472.808533,108.499893 465.041107,108.879456 457.430389,110.103447 
	C444.239594,112.224846 430.812256,113.874908 418.104675,117.754997 
	C401.185333,122.921074 384.283020,128.850998 368.421143,136.598099 
	C347.207458,146.959091 326.927063,159.251770 306.381012,170.952225 
	C290.932495,179.749741 275.456604,188.543503 260.466980,198.083786 
	C252.913559,202.891220 246.139267,209.054092 239.496246,215.132568 
	C226.656693,226.880966 214.053879,238.894531 201.553864,251.005569 
	C191.213364,261.024292 180.696411,270.923248 171.087555,281.620728 
	C155.214462,299.292145 141.032440,318.239258 129.313797,339.056824 
	C116.634880,361.580261 107.974159,385.521393 102.335297,410.581512 
	C100.152481,420.282349 99.309662,430.293365 98.020233,440.184448 
	C96.283821,453.504364 94.595810,466.832581 93.094803,480.180573 
	C91.901428,490.792755 91.105652,501.449097 89.975365,512.069092 
	C88.865234,522.499512 87.014030,532.881409 86.486076,543.335022 
	C85.956047,553.829773 80.920090,562.380432 76.304108,571.145020 
	C71.138123,580.954041 72.805992,591.081177 74.146523,601.191345 
	C75.520042,611.550415 77.396889,621.841980 78.979561,632.174316 
	C80.363968,641.212280 81.659454,650.264099 82.948875,659.316223 
	C83.060738,660.101501 82.833672,660.934998 82.728729,662.157349 
	C81.770096,661.642822 81.134552,661.107483 80.416405,660.950867 
	C77.688110,660.355896 73.408569,658.576355 72.501762,659.634033 
	C70.543602,661.918030 69.965233,665.634155 69.523315,668.860352 
	C69.312500,670.399414 70.552902,672.238037 71.393341,673.802795 
	C75.083740,680.673157 78.246841,684.504578 85.763680,675.337402 
	C88.621857,681.584167 91.430214,687.381775 93.952911,693.301147 
	C100.849503,709.483398 107.036224,726.002258 114.688499,741.814636 
	C118.757950,750.223633 124.494865,758.171387 130.850662,765.062317 
	C148.634369,784.343201 166.822678,803.277283 185.439896,821.755188 
	C202.250610,838.440186 219.826080,854.355530 237.088531,870.584473 
	C247.342911,880.224854 257.664825,889.793396 267.917175,899.435913 
	C274.923157,906.025146 281.810486,912.741699 288.884399,919.256287 
	C289.954437,920.241699 291.904541,921.153809 293.188599,920.880981 
	C301.451141,919.125305 310.571381,919.302490 316.332520,911.207397 
	C318.758575,920.954529 317.078644,924.298950 306.880280,929.650879 
	C311.985352,932.622925 316.742188,935.552246 321.642975,938.216797 
	C339.841949,948.111511 358.902679,955.584961 379.638855,958.006592 
	C389.747803,959.187073 399.916199,959.858765 410.025055,961.040100 
	C422.215729,962.464600 434.425476,963.860413 446.529877,965.857239 
	C463.261475,968.617432 479.906464,971.905334 496.578094,975.023010 
	C499.293335,975.530823 502.116577,975.957947 504.612518,977.054016 
	C514.524597,981.406433 523.940247,977.401917 533.544006,975.791260 
	C544.014099,974.035217 554.523376,972.498169 565.039734,971.039673 
	C569.271240,970.452881 573.653564,970.735046 577.802795,969.850403 
	C580.528320,969.269226 583.187500,967.611816 585.472900,965.898193 
	C589.667236,962.753418 594.155945,959.683655 597.365967,955.660339 
	C599.347778,953.176514 599.261780,949.001831 599.962524,945.557495 
	C600.244690,944.170410 600.148193,942.706299 600.283813,940.149170 
	C602.094666,942.090698 603.212341,943.289124 604.759644,944.948120 
	C608.365540,938.539673 603.243103,933.616760 602.138733,928.245178 
	C602.586121,927.962036 603.033569,927.678955 603.480957,927.395813 
	C608.567688,933.643494 613.654480,939.891174 619.070496,946.543335 
	C622.812317,944.504517 623.844238,935.794189 631.706482,940.250977 
	C632.180054,937.520996 632.466980,935.122437 633.049988,932.798157 
	C633.375488,931.500244 634.192810,930.325745 634.788574,929.095703 
	C635.972351,929.982666 637.213257,930.805603 638.312012,931.787598 
	C638.762695,932.190430 638.813904,933.008423 639.206360,933.513672 
	C640.900391,935.694641 642.248718,935.598511 643.535950,932.998535 
	C647.776001,924.434631 649.765564,923.676941 659.346252,925.620056 
	C661.589294,926.074951 664.077026,925.322937 666.538452,925.119080 
	C666.437622,925.595581 666.386963,925.863403 666.324036,926.128418 
	C665.415771,929.950256 663.998047,934.794189 668.473450,936.279663 
	C670.765503,937.040466 674.651306,933.794739 677.494629,931.881226 
	C680.467529,929.880371 683.053894,927.305237 686.165161,924.680969 
	C687.097961,925.965576 687.948059,927.074341 688.733337,928.227234 
	C696.024597,938.931274 701.589905,937.553955 709.917664,932.262878 
	C749.617249,907.039917 788.262451,880.252014 825.740234,851.801697 
	C844.359680,837.667114 863.137512,823.741211 881.759888,809.610535 
	C887.984924,804.886963 893.950134,799.820984 900.650391,794.414307 
	C900.896240,797.368103 901.080261,799.578247 901.264221,801.788452 
	C901.535828,801.870972 901.807434,801.953491 902.078979,802.036011 
	C903.412903,798.318542 904.746765,794.601013 906.122742,790.766357 
	C913.454651,795.323181 915.799988,795.747437 922.306702,787.229736 
	C929.462830,777.861816 936.445190,768.312622 944.260315,759.514893 
	C948.968628,754.214661 955.119568,750.195923 960.622253,745.601379 
	C961.087219,745.904846 961.552124,746.208313 962.017029,746.511780 
	C958.905457,754.581299 956.053284,762.762939 952.623840,770.695007 
	C946.928650,783.867615 941.403625,797.160095 934.811035,809.886292 
	C927.162292,824.651306 918.685974,839.007996 910.121948,853.273682 
	C898.627136,872.421448 884.880005,889.956726 869.897278,906.473877 
	C864.177917,912.778992 861.399231,919.919067 859.918518,928.133057 
	C858.213928,937.589050 852.179504,941.728577 842.518799,942.083130 
	C837.014893,942.285095 831.205872,942.388367 826.134827,944.208984 
	C818.812256,946.837891 818.798096,948.427307 822.830139,955.498596 
	C823.258606,956.250122 823.323608,957.208862 823.817993,959.034241 
	C822.008484,958.069153 820.887695,957.680969 820.024597,956.977051 
	C814.367432,952.363464 808.071167,952.166809 801.482788,954.263184 
	C796.831726,955.743164 792.265747,957.491394 787.611694,958.961426 
	C784.750977,959.865112 784.076050,961.250488 786.106140,963.589478 
	C788.589905,966.451111 791.030029,969.357910 793.642029,972.099365 
	C798.642822,977.348267 801.680542,987.145996 800.281311,995.965393 
	C797.111877,992.412964 794.213745,989.632568 791.868286,986.445374 
	C785.597839,977.924316 783.165344,977.052734 775.659424,984.047852 
	C763.913208,994.994934 753.161377,1007.012756 741.359802,1017.895386 
	C733.802490,1024.864136 731.173157,1032.478394 733.904724,1042.209839 
	C734.195496,1043.245605 733.943909,1044.433472 733.943909,1046.000000 
	C727.594482,1046.000000 721.623291,1046.167603 715.665100,1045.961914 
	C706.048828,1045.630005 703.455566,1051.810547 703.053528,1058.312744 
	C702.778198,1062.766724 703.000793,1067.251587 703.000793,1071.863037 
	C695.480774,1072.558105 692.233276,1067.286865 688.462585,1062.890137 
	C687.725830,1062.031006 687.207520,1060.987671 686.554871,1060.052734 
	C681.691223,1053.084961 675.644287,1052.627686 667.617554,1054.689331 
	C656.739990,1057.482910 645.658142,1059.290771 635.358093,1064.858521 
	C635.551086,1065.537842 635.709290,1066.087280 635.863342,1066.637939 
	C637.953735,1074.106201 634.715881,1076.509766 626.848206,1075.649658 
	C618.014709,1074.684082 611.709839,1069.068604 604.350342,1065.519409 
	C593.602417,1060.336304 582.676453,1057.130615 570.714294,1058.027588 
	C568.943787,1058.160400 567.037231,1058.309082 565.472107,1059.043823 
	C557.255127,1062.900513 550.037170,1057.702759 542.371643,1056.700317 
	C530.695679,1055.173340 519.062317,1053.227295 507.348785,1052.109619 
	C498.133240,1051.230347 488.792023,1050.686768 479.563354,1051.142700 
	C463.301605,1051.945801 447.077026,1053.554688 430.848938,1054.964844 
	C421.410034,1055.785034 411.994598,1056.874634 402.234955,1057.877197 
	C402.234955,1053.151611 402.234955,1048.642944 402.234955,1042.669067 
	C395.829803,1049.169678 391.031281,1046.587158 385.532990,1043.224609 
	C372.450439,1035.223389 359.058075,1027.712769 345.622101,1020.310242 
	C333.597290,1013.685181 321.382721,1007.399353 309.156372,1001.150696 
	C307.366119,1000.235779 305.033844,999.989929 302.972900,1000.057739 
	C285.447266,1000.634583 269.187469,996.499023 254.411057,987.031555 
	C248.650406,983.340515 243.632141,978.145874 237.473343,975.513062 
	C230.578308,972.565552 222.849808,971.172852 215.341583,970.175293 
	C208.954773,969.326660 202.363358,970.114807 195.866669,969.978271 
	C177.128342,969.584412 162.464035,961.167847 150.519302,947.112793 
	C136.281601,930.359558 129.804626,910.438293 125.938812,889.288513 
	C124.106125,879.261780 119.921326,870.919983 108.440208,868.834778 
	C107.362656,868.639099 106.282867,866.705994 105.779449,865.363708 
	C99.153252,847.695862 92.837601,829.908997 86.013474,812.318970 
	C80.950264,799.267822 75.397705,786.400146 69.819176,773.556702 
	C60.208385,751.429810 50.468803,729.358154 40.655804,707.320068 
	C36.874004,698.826965 32.515213,690.547607 32.005707,681.015198 
	C31.449202,670.603516 31.021542,660.184937 30.517736,649.339111 
	C31.826555,649.663269 32.398758,649.853149 32.986279,649.943237 
	C42.892551,651.462952 45.961853,647.933777 43.385437,637.797241 
	C38.979862,620.464172 35.900181,602.625244 29.673456,585.966980 
	C22.048655,565.568420 11.760272,546.165405 2.595547,526.344849 
	C2.504355,526.147644 2.032737,526.126343 1.369358,526.011475 
	C1.000000,521.310730 1.000000,516.621521 1.000004,511.466125 
M100.883377,737.605957 
	C99.583092,735.178162 98.159103,732.807434 97.005928,730.311707 
	C93.663109,723.076904 90.522957,715.746887 87.079559,708.561401 
	C86.315102,706.966187 84.631790,705.811279 83.426285,704.512634 
	C85.433868,712.493958 87.339134,719.904663 89.152420,727.337830 
	C90.269852,731.918518 95.957924,738.677551 100.883377,737.605957 
M71.582558,706.094177 
	C67.755432,701.015076 67.107536,706.815552 64.680954,707.701660 
	C68.146042,711.955139 71.299553,715.826172 74.453072,719.697205 
	C74.745453,719.570801 75.037842,719.444397 75.330231,719.317993 
	C74.196915,715.147339 73.063599,710.976746 71.582558,706.094177 
z"/>
<path fill="#FF0000" opacity="1.000000" stroke="none" 
	d="
M1001.000000,467.571533 
	C999.807556,469.694946 997.979065,471.235168 997.523132,473.109314 
	C993.868530,488.131378 990.066589,503.137878 987.128906,518.307800 
	C984.830627,530.176208 983.597961,542.258301 982.106262,554.272034 
	C981.522461,558.973999 981.524109,563.748657 980.523438,568.475220 
	C973.510193,544.755798 978.969299,521.046204 981.072754,496.862518 
	C979.957642,497.285156 979.192810,497.334534 978.864014,497.738708 
	C976.695618,500.403656 973.514893,502.577148 970.788269,500.574982 
	C968.401550,498.822357 967.235168,495.106110 966.117737,492.042816 
	C965.473633,490.276794 966.542786,487.871826 965.864746,486.135651 
	C964.863647,483.572327 963.505249,480.663055 961.406738,479.095490 
	C950.732239,471.121429 942.178223,461.203217 935.167725,450.096802 
	C929.530151,441.165436 924.958435,431.551819 920.127625,422.131287 
	C919.441772,420.793671 919.674377,418.779053 919.982666,417.173950 
	C921.210144,410.782349 923.571838,404.462006 923.799011,398.054474 
	C924.319031,383.389771 920.156616,369.527954 907.376282,361.521423 
	C893.603333,352.893158 885.097595,341.268280 880.189575,326.396088 
	C877.033142,316.831329 873.553833,307.292847 871.493286,297.475189 
	C870.146851,291.059784 871.085693,284.165375 870.990051,277.485718 
	C870.980591,276.827545 870.895203,276.170471 870.783813,274.709869 
	C865.864502,277.148804 861.385315,279.663147 856.677551,281.630615 
	C850.535034,284.197723 844.192627,287.198334 837.592834,283.004242 
	C832.224060,279.592468 826.989624,275.958221 821.809692,272.262604 
	C806.386658,261.258942 791.132385,250.015366 775.604736,239.162308 
	C752.058167,222.704422 728.543823,206.184784 704.613159,190.297867 
	C689.954224,180.566193 674.384949,172.214767 659.551453,162.732117 
	C654.058777,159.220764 648.081726,159.649155 642.444153,159.251236 
	C628.703247,158.281372 615.577271,155.134827 603.243652,149.455093 
	C592.945740,144.712784 583.510315,138.264084 577.018494,128.486786 
	C572.189392,121.213684 571.396362,113.502220 575.728333,105.838303 
	C579.828064,98.585106 586.184143,94.846947 594.781006,94.930885 
	C599.711731,94.979034 604.647583,94.116219 609.584351,94.076958 
	C612.832764,94.051109 616.421570,94.031853 619.253662,95.328957 
	C622.755249,96.932716 624.043091,95.979042 625.598694,93.015129 
	C628.740845,87.028481 633.825195,84.825981 640.655029,84.879784 
	C652.753357,84.975098 664.858765,84.374191 676.958984,83.991501 
	C702.171509,83.194092 725.906555,89.954483 749.091858,98.729416 
	C762.034485,103.627808 774.691040,109.440025 787.050964,115.682930 
	C805.501343,125.002121 822.411926,136.720856 837.985596,150.400223 
	C849.689209,160.680130 861.221619,171.176529 869.672546,184.317017 
	C885.729065,209.283539 901.221741,234.612549 916.962158,259.782501 
	C927.943909,277.343048 938.949524,294.888672 949.941956,312.442535 
	C956.261902,322.534851 962.925476,332.436676 968.698303,342.832977 
	C970.633728,346.318390 970.449768,351.048676 970.962097,355.243225 
	C972.393188,366.961090 973.654785,378.699493 975.033691,390.423889 
	C976.660950,404.260223 978.857544,418.053345 979.852661,431.933624 
	C980.848328,445.821167 980.669861,459.793060 980.994812,473.728241 
	C981.033142,475.371796 981.000000,477.016998 981.000000,479.235260 
	C985.584900,478.268646 987.561768,475.125488 989.531799,471.963715 
	C992.202637,467.677216 994.364014,462.836670 1000.623169,462.001099 
	C1001.000000,463.714355 1001.000000,465.428711 1001.000000,467.571533 
z"/>
<path fill="#FF0000" opacity="1.000000" stroke="none" 
	d="
M556.373962,284.691132 
	C576.669922,287.001251 595.847595,291.951050 614.610535,298.859589 
	C635.637268,306.601654 654.996338,317.376404 672.405457,331.293701 
	C689.876160,345.260132 704.973572,361.644012 716.921326,380.700867 
	C729.683044,401.056061 738.359314,423.116943 743.937927,446.434814 
	C744.086243,447.054535 743.901672,447.753876 743.859314,448.709351 
	C742.543335,448.807739 741.259583,448.986389 739.975769,448.987366 
	C717.476440,449.004456 694.976807,448.946075 672.478027,449.058807 
	C669.165161,449.075378 667.724426,448.255341 666.875122,444.705780 
	C660.603943,418.495178 646.921204,396.622620 626.534729,379.169647 
	C606.647522,362.144073 583.329285,352.231964 557.754272,346.865845 
	C536.637024,342.434967 515.284546,341.885498 494.073334,343.275604 
	C462.953247,345.315063 433.083313,353.126801 406.821686,370.820251 
	C395.313202,378.573944 384.003998,387.033478 374.146057,396.738556 
	C355.611969,414.985229 342.031616,436.981201 333.260895,461.396240 
	C327.343903,477.867493 322.989380,495.005310 319.320557,512.141418 
	C316.928772,523.312683 316.994781,535.013489 316.012360,546.481567 
	C315.604431,551.243347 314.948517,556.026062 315.062012,560.783569 
	C315.881836,595.141602 318.908173,629.131592 330.851044,661.809082 
	C338.944183,683.953125 349.876495,704.347961 364.967102,722.522583 
	C380.516266,741.249634 398.888000,756.444092 420.718536,767.235229 
	C438.828156,776.187073 457.875854,782.337463 478.120270,783.948669 
	C490.792999,784.957397 503.558655,786.339111 516.207275,785.796936 
	C544.835754,784.569702 572.679749,779.302246 598.225525,765.333374 
	C620.322205,753.250488 637.564819,736.159790 651.080933,714.958374 
	C665.567749,692.234497 675.072510,667.624573 679.955322,641.248657 
	C682.452332,627.760864 684.025391,614.101624 685.975037,600.513977 
	C686.110901,599.566956 685.906189,598.570984 685.834351,597.061768 
	C633.931946,597.061768 582.209473,597.061768 530.245178,597.061768 
	C530.245178,579.250244 530.245178,561.983521 530.245178,544.357849 
	C604.641968,544.357849 679.025208,544.357849 753.704529,544.357849 
	C753.704529,641.315002 753.704529,738.246399 753.704529,835.627686 
	C752.636536,835.738770 751.383484,835.980774 750.130127,835.982605 
	C732.797302,836.007629 715.463501,835.901794 698.132385,836.075073 
	C694.255249,836.113831 692.999451,835.030029 692.891052,831.002441 
	C692.499512,816.458679 691.726257,801.923584 690.971558,787.391724 
	C690.415527,776.682983 689.695374,765.982300 688.962219,755.283875 
	C688.862671,753.831055 688.262024,752.412659 687.583435,749.772278 
	C682.939514,756.024963 679.099915,761.206726 675.247681,766.379028 
	C664.546631,780.747009 652.496765,793.878540 637.964783,804.399597 
	C627.675720,811.848755 617.202637,819.260803 606.026611,825.216003 
	C590.123718,833.689941 572.661377,837.877136 554.921936,841.123840 
	C531.967163,845.324951 508.816650,845.884216 485.722931,844.790039 
	C457.052155,843.431641 429.104584,837.708984 402.334137,826.796631 
	C383.307800,819.041077 365.735046,808.783386 349.346710,796.568909 
	C340.270538,789.804260 331.045044,782.823303 323.528564,774.463623 
	C303.997223,752.741699 287.080750,729.066345 275.044800,702.216492 
	C265.615479,681.181458 258.528381,659.328125 254.241379,636.738953 
	C251.528702,622.445251 250.015991,607.837158 249.161285,593.299744 
	C248.119125,575.573914 247.369614,557.726990 248.239105,540.018188 
	C249.393967,516.497620 252.972931,493.170746 259.301849,470.390778 
	C268.698792,436.568054 283.231445,405.083160 304.573120,377.187866 
	C324.421112,351.244904 348.852356,330.247620 377.432251,314.134430 
	C402.425598,300.043335 429.224701,291.198242 457.306580,286.165527 
	C467.135101,284.404114 477.188477,283.591919 487.176331,283.097656 
	C501.758057,282.376099 516.376892,281.986206 530.972961,282.134247 
	C539.313660,282.218872 547.640747,283.650269 556.373962,284.691132 
z"/>
<path fill="#000000" opacity="1.000000" stroke="none" 
	d="
M100.873947,737.974915 
	C95.957924,738.677551 90.269852,731.918518 89.152420,727.337830 
	C87.339134,719.904663 85.433868,712.493958 83.426285,704.512634 
	C84.631790,705.811279 86.315102,706.966187 87.079559,708.561401 
	C90.522957,715.746887 93.663109,723.076904 97.005928,730.311707 
	C98.159103,732.807434 99.583092,735.178162 100.873947,737.974915 
z"/>
<path fill="#000000" opacity="1.000000" stroke="none" 
	d="
M71.756416,706.450134 
	C73.063599,710.976746 74.196915,715.147339 75.330231,719.317993 
	C75.037842,719.444397 74.745453,719.570801 74.453072,719.697205 
	C71.299553,715.826172 68.146042,711.955139 64.680954,707.701660 
	C67.107536,706.815552 67.755432,701.015076 71.756416,706.450134 
z"/>
</svg>